<svg height="289.06250000000006" width="662.1680330345628"
    style="width: 662.168px; height: 289.062px; position: absolute; top: 50%; left: 50%; transform: translate(-50%, -50%) scale(1); z-index: 0; cursor: pointer; overflow: visible;">
    <defs id="SvgjsDefs1001"></defs>
    <g id="SvgjsG1007" featurekey="rootContainer"
        transform="matrix(12.963606406323592,0,0,12.963606406323592,0.31112658060278386,0.12963607323894338)"
        fill="#fffefe">
        <path xmlns="http://www.w3.org/2000/svg"
            d="M50.11 21.35H.92V.92h49.19v20.42zM1.19 21.1h48.7V1.17H1.19V21.1z"></path>
        <path xmlns="http://www.w3.org/2000/svg"
            d="M48.68 19.92H2.36V2.36h46.32v17.56zm-46.17-.15h46V2.51h-46v17.25zM49.988.005l1.047 1.047-1.047 1.046-1.046-1.046zM50.009 20.195l1.046 1.046-1.046 1.047-1.047-1.047zM1.022-.01L2.07 1.035 1.022 2.082-.024 1.036zM1.043 20.179l1.047 1.046-1.047 1.047-1.047-1.047z"></path>
    </g>
    <g id="SvgjsG1008" featurekey="symbolFeature-0"
        transform="matrix(0.8888790178806438,0,0,0.8888790178806438,286.5556049105968,37.00720876529709)"
        fill="#ffffff">
        <g xmlns="http://www.w3.org/2000/svg">
            <defs>
                <rect id="b" x="4.011" y="4.011" width="92.06" height="91.833"></rect>
            </defs>
            <clipPath id="a">
                <use xmlns:xlink="http://www.w3.org/1999/xlink" xlink:href="#b" overflow="visible"></use>
            </clipPath>
            <path clip-path="url(#a)" fill="none"
                d="M38.842,46.162c1.528-1.049,12.094-8.164,15.638-6.827   c-3.54-1.341-14.111,5.777-15.64,6.827c-0.299,1.026-1.234,1.78-2.356,1.781c0,0,0,0,0,0   C37.606,47.943,38.543,47.188,38.842,46.162z"></path>
            <polygon clip-path="url(#a)" fill="none"
                points="51.226,62.877 51.226,62.877 48.587,73.436  "></polygon>
            <path clip-path="url(#a)" fill="none"
                d="M28.193,64.524l6.251-17.659c0-0.001-0.001-0.001-0.001-0.002l-6.252,17.661   c0.129,3.959,5.878,7.585,12.42,9.376c0,0,0,0,0-0.001C34.069,72.108,28.321,68.482,28.193,64.524z"></path>
            <path clip-path="url(#a)" fill="none"
                d="M49.765,61.868c-0.08-0.192-0.124-0.403-0.124-0.625v-1.779   c-1.566,0.523-1.908,1.736-1.953,4.41l0.899,9.562l2.64-10.56C50.566,62.852,50.004,62.445,49.765,61.868z"></path>
            <path clip-path="url(#a)" fill="none"
                d="M56.733,44.653c0-1.358-0.507-3.796-1.645-4.934   c-0.169-0.169-0.373-0.295-0.609-0.385c-3.543-1.337-14.11,5.779-15.638,6.827c-0.299,1.026-1.236,1.781-2.358,1.781c0,0,0,0,0,0   c0,0-0.001,0-0.002,0c-0.847,0-1.594-0.429-2.038-1.078l-6.251,17.659c0.128,3.958,5.876,7.584,12.418,9.375   c-0.607-2.846-1.967-10.064-1.967-17.733C38.859,49.873,56.734,50.244,56.733,44.653z"></path>
            <path clip-path="url(#a)" fill="#ffffff"
                d="M93.354,26.573h-25.05c-0.908,0-1.645,0.736-1.645,1.645v5.018   c-2.093-3.097-5.024-5.029-8.279-5.029c0,0-3.384-0.593-4.934,1.645C49.716,35.236,39.101,41.92,37,43.009l0.033,0.066   c-0.177-0.04-0.36-0.066-0.549-0.066c-0.251,0-0.488,0.049-0.717,0.118l0.532-1.503c0.052-0.154,0.484-1.546-0.179-2.803   c-0.39-0.74-1.088-1.272-2.02-1.538c-2.578-0.73-3.937,1.102-4.26,2.089l-1.523,3.272c-0.192-3.006-2.665-5.392-5.719-5.392v11.512   c1.275,0,2.442-0.428,3.396-1.13l-8.98,19.291c-1.927-0.204-3.884,0.083-5.707,0.877c-2.773,1.209-4.908,3.427-6.014,6.243   L5,74.789l2.017,0.858c-0.951,1.347-1.534,2.901-1.649,4.571c-0.165,2.411,0.618,4.743,2.205,6.564   c1.588,1.821,3.79,2.915,6.2,3.08c0.212,0.014,0.423,0.021,0.634,0.021c2.183,0,4.267-0.777,5.929-2.226   c1.541-1.342,2.521-3.136,2.899-5.113l1.781,0.757h31.8c1.384,3.9,5.071,6.579,9.27,6.579c4.217,0,7.887-2.672,9.271-6.579h4.942   c1.103,0,2.167-0.467,2.917-1.282c0.74-0.805,1.115-1.886,1.025-2.966c-0.536-6.457-2.564-12.353-4.834-16.429   c0.473-0.289,0.806-0.787,0.806-1.382V56.08c0-0.908-0.736-1.645-1.645-1.645h14.788c0.908,0,1.645-0.736,1.645-1.645V28.218   C94.998,27.31,94.263,26.573,93.354,26.573z M51.226,62.877l-2.64,10.56l-0.899-9.562c0.045-2.674,0.387-3.887,1.953-4.41v1.779   c0,0.222,0.044,0.433,0.124,0.625c0.24,0.576,0.802,0.983,1.462,1.007V62.877C51.226,62.877,51.226,62.877,51.226,62.877z    M38.646,56.166c0,7.669,1.359,14.889,1.967,17.734c-0.001,0-0.001,0-0.002-0.001c0,0,0,0,0,0.001   c-6.542-1.791-12.291-5.417-12.42-9.376l6.252-17.661c0,0.001,0.001,0.001,0.001,0.002l0.001-0.002   c0.444,0.652,1.191,1.08,2.039,1.08c1.122-0.001,2.058-0.754,2.356-1.781c1.529-1.05,12.1-8.169,15.64-6.827   c0.237,0.089,0.443,0.216,0.612,0.386c1.138,1.138,1.645,3.576,1.645,4.934C56.736,50.244,38.861,49.873,38.646,56.166z    M84.033,39.676l-6,5.82l3.31-4.83l-1.83-0.674l4.52-5.185c0,0-2.413,4.158-2.344,4.364C81.757,39.375,84.033,39.676,84.033,39.676   z"></path>
            <path clip-path="url(#a)" fill="#ffffff"
                d="M49.765,61.868c0.24,0.576,0.802,0.983,1.462,1.008l0-0.001   C50.566,62.852,50.004,62.445,49.765,61.868z"></path>
            <path clip-path="url(#a)" fill="#ffffff"
                d="M54.48,39.335c0.236,0.089,0.44,0.216,0.609,0.385   c1.138,1.138,1.645,3.576,1.645,4.934c0.001,5.591-17.875,5.22-18.09,11.513c0,7.669,1.36,14.887,1.967,17.733   c0.001,0,0.001,0,0.002,0.001c-0.608-2.845-1.967-10.065-1.967-17.734c0.215-6.293,18.091-5.922,18.091-11.512   c0-1.358-0.507-3.796-1.645-4.934C54.922,39.551,54.716,39.424,54.48,39.335z"></path>
            <path clip-path="url(#a)" fill="#ffffff"
                d="M36.482,47.943c0,0,0.001,0,0.002,0c-0.848,0-1.595-0.428-2.039-1.08   l-0.001,0.002C34.888,47.515,35.635,47.943,36.482,47.943z"></path>
            <path clip-path="url(#a)" fill="#ffffff"
                d="M41.125,18.341l6.954-0.001c-0.052,0.632-0.072,1.517,0.031,2.47h-2.658   c0.006-0.071,0.019-0.146,0.019-0.213c0-1.191-4.063-1.191-4.063,0s0.91,3.003,2.031,3.003c0.914,0,1.677-1.201,1.933-2.29h2.799   c0.185,1.18,0.589,2.42,1.41,3.405c1.023,1.227,2.489,1.849,4.361,1.849c4.487,0,5.727-4.296,5.756-6.579   c0-5.442-4.427-9.868-9.868-9.868c-4.396,0-8.301,2.952-9.496,7.178c-0.071,0.248-0.02,0.515,0.135,0.72   C40.625,18.221,40.867,18.341,41.125,18.341z"></path>
        </g>
    </g>
    <g id="SvgjsG1009" featurekey="nameFeature-0"
        transform="matrix(1.5535186536140062,0,0,1.5535186536140062,228.51437030237267,124.35777763818277)"
        fill="#ffffff">
        <path
            d="M9.2 31.32 l-7.6 -19.32 l5.4 0 l4.2 10.6 l4.16 -10.6 l5.4 0 l-7.6 19.32 l-3.96 0 z M1.68 40 l0 -23.24 l5.04 12.84 l0 10.4 l-5.04 0 z M15.68 40 l0 -10.4 l5.04 -12.84 l0 23.24 l-5.04 0 z M35.316 40 l0 -5.04 l1.6 0 l0.76 -0.76 l0 -16.4 l-0.76 -0.76 l-1.6 0 l0 -5.04 l3.68 0 l3.72 3.72 l0 20.56 l-3.72 3.72 l-3.68 0 z M29.916 40 l-3.72 -3.72 l0 -20.56 l3.72 -3.72 l3.68 0 l0 5.04 l-1.6 0 l-0.76 0.76 l0 16.4 l0.76 0.76 l1.6 0 l0 5.04 l-3.68 0 z M53.472 40 l0 -21.28 l5.04 0 l0 21.28 l-5.04 0 z M48.152 17.04 l0 -5.04 l15.68 0 l0 5.04 l-15.68 0 z M78.388 40 l0 -5.04 l1.6 0 l0.76 -0.76 l0 -16.4 l-0.76 -0.76 l-1.6 0 l0 -5.04 l3.68 0 l3.72 3.72 l0 20.56 l-3.72 3.72 l-3.68 0 z M72.988 40 l-3.72 -3.72 l0 -20.56 l3.72 -3.72 l3.68 0 l0 5.04 l-1.6 0 l-0.76 0.76 l0 16.4 l0.76 0.76 l1.6 0 l0 5.04 l-3.68 0 z M94.94400000000002 40 l-3.72 -3.72 l0 -20.56 l3.72 -3.72 l3.56 0 l0 5.04 l-1.48 0 l-0.76 0.76 l0 16.4 l0.76 0.76 l1.48 0 l0 5.04 l-3.56 0 z M100.18400000000001 40 l0 -5.04 l1.48 0 l0.76 -0.76 l0 -3.16 l5.04 0 l0 5.24 l-3.72 3.72 l-3.56 0 z M102.424 20.96 l0 -3.16 l-0.76 -0.76 l-1.48 0 l0 -5.04 l3.56 0 l3.72 3.72 l0 5.24 l-5.04 0 z M112.10000000000001 40 l2.28 -11.2 l8.56 0 l-1.72 -8.56 l-1.36 6.88 l-5.16 0 l3.04 -15.12 l6.96 0 l4.4 21.84 l-10.6 0 l-1.24 6.16 l-5.16 0 z M125.22000000000001 40 l-0.92 -4.48 l5.16 0 l0.88 4.48 l-5.12 0 z"></path>
    </g>
    <g id="SvgjsG1010" featurekey="sloganFeature-0"
        transform="matrix(2.6031982740374167,0,0,2.6031982740374167,259.17776294599616,178.39345382896877)"
        fill="#ffffff">
        <path
            d="M4.2 10.3 c-0.78 0 -1.5 0.8 -1.5 1.66 l0 4.54 c0 0.86 0.72 1.66 1.5 1.66 l1.86 0 c0.78 0 1.5 -0.78 1.5 -1.64 l2 0 c0 0.9 -0.36 1.82 -1 2.5 c-0.66 0.74 -1.56 1.14 -2.5 1.14 l-1.86 0 c-0.94 0 -1.84 -0.4 -2.5 -1.14 c-0.64 -0.68 -1 -1.6 -1 -2.52 l0 -4.54 c0 -0.9 0.36 -1.82 1 -2.52 c0.66 -0.72 1.56 -1.14 2.5 -1.14 l1.86 0 c0.48 0 0.94 0.12 1.36 0.32 c0.06 0.02 0.14 -0.02 0.14 -0.08 l0 -0.06 l2 0 c0 1.14 -0.34 1.68 -0.6 1.72 c0.24 0.06 0.56 0.58 0.6 1.72 l-2 0 c0 -0.86 -0.74 -1.62 -1.5 -1.62 l-1.86 0 z M18.451999999999998 11.96 l0 4.54 c0 0.92 -0.36 1.84 -1 2.52 c-0.66 0.74 -1.56 1.14 -2.5 1.14 l-1.86 0 c-0.94 0 -1.84 -0.4 -2.5 -1.14 c-0.64 -0.68 -1 -1.6 -1 -2.52 l0 -4.54 c0 -0.9 0.36 -1.82 1 -2.52 c0.66 -0.72 1.56 -1.14 2.5 -1.14 l1.86 0 c0.94 0 1.84 0.42 2.5 1.14 c0.64 0.7 1 1.62 1 2.52 z M14.951999999999998 18.16 c0.78 0 1.5 -0.8 1.5 -1.66 l0 -4.54 c0 -0.86 -0.72 -1.66 -1.5 -1.66 l-1.86 0 c-0.78 0 -1.5 0.8 -1.5 1.66 l0 4.54 c0 0.86 0.72 1.66 1.5 1.66 l1.86 0 z M27.284 9.12 c0 -0.26 0.52 -0.64 1.7 -0.64 l0 2 c-0.34 0 -0.6 0.26 -0.6 0.6 l0 6.32 c0 0.34 0.26 0.6 0.6 0.6 l0 2 c-0.86 0 -1.24 -0.3 -1.3 -0.58 c-0.06 0.28 -0.44 0.58 -1.3 0.58 l-4.72 -7.44 c-0.06 -0.1 -0.2 -0.06 -0.2 0.06 l0 4.62 c0 0.42 0.32 0.76 0.78 0.76 l0 2 c-1.18 0 -1.74 -0.32 -1.78 -0.6 c-0.06 0.28 -0.56 0.6 -1.76 0.6 l0 -2 c0.42 0 0.76 -0.34 0.76 -0.76 l0 -6 c0 -0.42 -0.34 -0.76 -0.76 -0.76 l0 -2 c0.88 0 1.32 0.32 1.38 0.58 c0.04 -0.26 0.4 -0.58 1.38 -0.58 l4.76 7.52 c0.04 0.08 0.16 0.04 0.16 -0.04 l0 -4.88 c0 -0.34 -0.24 -0.6 -0.78 -0.6 l0 -2 c1.18 0 1.68 0.38 1.68 0.64 z M37.035999999999994 11.92 l-2 0 l0 -1.44 l-2.78 0 c-0.18 0 -0.32 0.14 -0.32 0.34 l0 2.04 c0 0.18 0.14 0.32 0.32 0.32 l2.36 0 l0 2 l-2.36 0 c-0.18 0 -0.32 0.14 -0.32 0.34 l0 2.16 c0 0.18 0.14 0.32 0.32 0.32 l2.78 0 l0 -1.42 l2 0 l0 3.42 l-4.62 0 c-1.08 0 -1.58 -0.32 -1.62 -0.6 c-0.06 0.28 -0.54 0.6 -1.62 0.6 l0 -2 c0.42 0 0.76 -0.34 0.76 -0.76 l0 -6 c0 -0.42 -0.34 -0.76 -0.76 -0.76 l0 -2 c1.08 0 1.56 0.34 1.62 0.6 c0.04 -0.26 0.52 -0.6 1.62 -0.6 l4.62 0 l0 3.44 z M40.628 10.3 c-0.78 0 -1.5 0.8 -1.5 1.66 l0 4.54 c0 0.86 0.72 1.66 1.5 1.66 l1.86 0 c0.78 0 1.5 -0.78 1.5 -1.64 l2 0 c0 0.9 -0.36 1.82 -1 2.5 c-0.66 0.74 -1.56 1.14 -2.5 1.14 l-1.86 0 c-0.94 0 -1.84 -0.4 -2.5 -1.14 c-0.64 -0.68 -1 -1.6 -1 -2.52 l0 -4.54 c0 -0.9 0.36 -1.82 1 -2.52 c0.66 -0.72 1.56 -1.14 2.5 -1.14 l1.86 0 c0.48 0 0.94 0.12 1.36 0.32 c0.06 0.02 0.14 -0.02 0.14 -0.08 l0 -0.06 l2 0 c0 1.14 -0.34 1.68 -0.6 1.72 c0.24 0.06 0.56 0.58 0.6 1.72 l-2 0 c0 -0.86 -0.74 -1.62 -1.5 -1.62 l-1.86 0 z M52.13999999999999 8.48 l2.34 0 l0 3.44 l-2.02 0 l0 -1.44 l-0.92 0 c-0.08 0 -0.16 0.08 -0.16 0.16 l0 6.6 c0 0.42 0.34 0.76 0.76 0.76 l0 2 c-1.18 0 -1.74 -0.32 -1.78 -0.6 c-0.06 0.28 -0.58 0.6 -1.76 0.6 l0 -2 l0.02 0 c0.42 0 0.76 -0.34 0.76 -0.76 l0 -6.6 c0 -0.08 -0.08 -0.16 -0.16 -0.16 l-0.94 0 l0 1.44 l-2 0 l0 -3.44 l2.32 0 c1.18 0 1.7 0.34 1.76 0.6 c0.04 -0.26 0.6 -0.6 1.78 -0.6 z"></path>
    </g>
</svg>